<?xml version="1.0" encoding="UTF-8"?>
<svg xmlns="http://www.w3.org/2000/svg" viewBox="0 0 1964 394" role="img" aria-labelledby="sawayatra-title" preserveAspectRatio="xMidYMid meet">
  <title id="sawayatra-title">Sawayatra</title>
  <path d="M 410.2 28.0 L 411.5 33.0 L 409.3 38.0 L 368.0 104.4 L 353.0 120.5 L 330.0 138.3 L 322.0 143.3 L 316.0 144.3 L 296.0 129.7 L 278.0 124.5 L 262.0 124.7 L 257.0 126.7 L 252.7 131.0 L 251.5 136.0 L 252.7 141.0 L 258.0 146.3 L 273.0 154.3 L 311.0 170.7 L 322.0 178.5 L 329.3 188.0 L 333.2 201.0 L 332.5 204.0 L 333.5 208.0 L 329.3 228.0 L 323.7 241.0 L 322.3 247.0 L 317.7 253.0 L 315.3 260.0 L 306.3 275.0 L 295.0 290.4 L 270.0 315.5 L 234.0 343.3 L 211.0 358.3 L 193.0 368.3 L 169.0 377.3 L 146.0 382.5 L 118.0 383.5 L 104.0 385.5 L 59.0 385.5 L 35.0 380.3 L 26.0 376.3 L 13.0 367.5 L 9.7 363.0 L 7.7 357.0 L 7.5 350.0 L 10.7 340.0 L 24.7 310.0 L 41.0 299.3 L 58.4 286.0 L 77.0 270.2 L 92.0 254.7 L 99.0 254.7 L 113.0 261.3 L 128.0 266.3 L 141.0 268.5 L 158.0 269.5 L 181.0 266.3 L 195.0 261.3 L 204.0 257.3 L 213.4 251.0 L 218.3 246.0 L 218.7 245.0 L 219.0 244.0 L 218.0 241.6 L 209.0 233.7 L 183.0 220.3 L 162.5 206.0 L 143.7 184.0 L 137.7 174.0 L 133.7 163.0 L 131.5 151.0 L 131.5 142.0 L 133.7 130.0 L 138.7 115.0 L 142.7 107.0 L 151.0 94.6 L 171.0 73.5 L 198.0 53.7 L 214.0 43.7 L 233.0 33.7 L 255.0 23.7 L 302.0 9.5 L 321.0 7.5 L 343.0 7.5 L 362.0 9.5 L 383.0 14.7 L 394.0 18.7 L 406.0 24.7 Z M 1260.3 19.0 L 1261.3 23.0 L 1258.0 29.4 L 1253.0 33.6 L 1250.0 39.4 L 1237.8 53.0 L 1226.0 70.4 L 1223.0 72.6 L 1222.3 75.0 L 1188.0 124.4 L 1174.8 139.0 L 1149.7 174.0 L 1133.7 205.0 L 1115.0 250.4 L 1092.4 273.0 L 1077.0 283.3 L 1069.0 285.5 L 1013.0 285.5 L 1008.6 284.0 L 1004.7 279.0 L 1004.7 271.0 L 1009.3 261.0 L 1026.3 213.0 L 1031.5 195.0 L 1028.5 169.0 L 1023.5 144.0 L 1021.5 126.0 L 1017.3 103.0 L 1014.2 91.0 L 1014.0 90.7 L 1013.0 90.1 L 1010.7 92.0 L 1009.5 96.0 L 1008.5 150.0 L 1007.5 153.0 L 1007.5 168.0 L 1005.5 184.0 L 1004.5 218.0 L 1003.5 221.0 L 1003.5 229.0 L 1007.5 246.0 L 1007.3 250.0 L 999.4 258.0 L 977.4 275.0 L 974.6 276.0 L 966.4 284.0 L 961.0 287.3 L 954.0 288.5 L 923.0 290.5 L 908.0 293.5 L 899.0 293.3 L 893.0 289.4 L 890.5 282.0 L 896.5 258.0 L 896.0 253.6 L 892.0 252.5 L 887.0 253.7 L 877.6 259.0 L 845.0 289.5 L 837.0 295.3 L 834.0 296.3 L 786.0 295.5 L 782.0 296.5 L 768.0 296.5 L 761.0 295.3 L 756.7 291.0 L 755.7 285.0 L 762.7 271.0 L 868.7 104.0 L 893.5 73.0 L 930.0 31.7 L 935.0 29.5 L 958.0 29.5 L 979.0 27.5 L 1003.0 22.5 L 1010.0 22.7 L 1013.3 25.0 L 1015.5 33.0 L 1012.8 61.0 L 1013.6 67.0 L 1014.0 67.6 L 1015.0 67.6 L 1022.5 61.0 L 1032.0 49.4 L 1037.3 42.0 L 1041.8 33.0 L 1048.0 28.7 L 1076.0 27.5 L 1123.0 22.0 L 1126.4 23.0 L 1129.3 27.0 L 1128.5 36.0 L 1129.5 39.0 L 1129.5 56.0 L 1130.5 63.0 L 1132.0 64.2 L 1148.0 51.5 L 1175.0 24.5 L 1180.0 21.7 L 1213.0 20.5 L 1245.0 15.5 L 1256.0 15.7 Z M 1955.3 32.0 L 1954.5 44.0 L 1950.7 54.0 L 1949.5 63.0 L 1948.5 95.0 L 1946.5 109.0 L 1945.5 138.0 L 1944.5 141.0 L 1943.5 166.0 L 1938.5 222.0 L 1939.5 245.0 L 1938.3 251.0 L 1935.7 255.0 L 1935.3 259.0 L 1929.3 269.0 L 1916.4 284.0 L 1910.0 287.3 L 1881.0 287.5 L 1863.0 289.5 L 1830.0 289.5 L 1826.0 288.3 L 1823.0 286.5 L 1819.5 282.0 L 1819.5 274.0 L 1824.5 253.0 L 1823.0 248.6 L 1820.0 247.5 L 1816.0 247.7 L 1809.0 252.8 L 1797.4 265.0 L 1775.4 284.0 L 1765.0 288.3 L 1741.0 290.5 L 1717.0 290.5 L 1709.6 287.0 L 1703.0 279.5 L 1701.0 278.5 L 1692.0 283.3 L 1684.0 284.5 L 1645.0 285.5 L 1641.6 284.0 L 1637.7 280.0 L 1623.3 243.0 L 1621.1 239.0 L 1621.0 238.9 L 1620.0 238.8 L 1611.5 247.0 L 1596.0 265.5 L 1586.0 275.5 L 1579.0 280.3 L 1523.0 280.5 L 1514.0 279.3 L 1509.0 277.3 L 1506.7 275.0 L 1504.5 270.0 L 1506.7 259.0 L 1555.3 136.0 L 1562.7 114.0 L 1568.3 102.0 L 1568.0 99.4 L 1567.0 99.4 L 1566.0 99.7 L 1545.0 114.3 L 1537.0 118.3 L 1526.0 119.5 L 1520.0 121.6 L 1510.7 142.0 L 1491.3 195.0 L 1482.7 214.0 L 1475.3 238.0 L 1470.5 246.0 L 1456.0 260.5 L 1440.4 273.0 L 1436.0 275.3 L 1403.0 278.5 L 1371.0 278.5 L 1366.6 277.0 L 1361.7 271.0 L 1361.7 266.0 L 1365.7 253.0 L 1375.7 225.0 L 1384.3 205.0 L 1391.7 182.0 L 1404.3 151.0 L 1404.7 147.0 L 1412.5 126.0 L 1412.0 123.9 L 1409.0 122.5 L 1390.0 122.5 L 1386.0 123.5 L 1372.0 123.5 L 1370.0 124.6 L 1368.7 127.0 L 1368.5 138.0 L 1364.5 160.0 L 1364.5 168.0 L 1362.5 181.0 L 1362.5 200.0 L 1361.5 203.0 L 1359.3 243.0 L 1347.4 255.0 L 1320.0 274.3 L 1310.0 277.5 L 1291.0 279.5 L 1280.0 279.5 L 1276.0 280.5 L 1253.0 280.3 L 1247.7 276.0 L 1246.0 269.0 L 1249.5 251.0 L 1249.1 246.0 L 1246.0 244.5 L 1239.0 244.5 L 1229.0 246.7 L 1222.0 250.7 L 1193.4 274.0 L 1183.0 280.3 L 1172.0 281.5 L 1161.0 280.5 L 1126.0 281.5 L 1120.0 280.3 L 1116.7 278.0 L 1115.5 275.0 L 1115.5 270.0 L 1117.7 263.0 L 1164.3 189.0 L 1180.7 161.0 L 1184.3 157.0 L 1217.3 106.0 L 1230.7 82.0 L 1239.5 71.0 L 1259.2 52.0 L 1284.0 24.6 L 1289.0 21.7 L 1295.0 20.5 L 1307.0 21.5 L 1310.0 20.5 L 1346.0 20.5 L 1362.0 18.5 L 1376.0 18.7 L 1379.3 22.0 L 1380.2 27.0 L 1376.5 42.0 L 1374.5 62.0 L 1375.0 65.6 L 1381.0 61.2 L 1403.5 39.0 L 1416.0 23.5 L 1419.0 21.7 L 1425.0 20.5 L 1430.0 21.5 L 1446.0 21.5 L 1449.0 22.5 L 1507.0 22.5 L 1510.0 21.5 L 1563.0 20.5 L 1593.0 16.5 L 1603.0 16.5 L 1606.0 17.7 L 1609.3 21.0 L 1609.5 26.0 L 1600.7 41.0 L 1596.7 51.0 L 1596.6 52.0 L 1596.9 53.0 L 1597.0 53.1 L 1598.0 53.2 L 1608.0 45.5 L 1625.6 29.0 L 1631.0 27.5 L 1643.0 27.5 L 1653.0 25.5 L 1676.0 23.5 L 1707.0 23.5 L 1733.0 28.7 L 1743.0 32.7 L 1759.0 43.5 L 1768.0 52.6 L 1773.3 61.0 L 1778.3 70.0 L 1780.3 77.0 L 1783.5 93.0 L 1783.5 100.0 L 1782.3 107.0 L 1775.3 123.0 L 1763.5 139.0 L 1743.4 158.0 L 1715.7 177.0 L 1720.7 195.0 L 1725.9 209.0 L 1726.0 209.1 L 1727.0 209.4 L 1729.0 208.4 L 1735.3 199.0 L 1746.7 179.0 L 1760.3 159.0 L 1761.7 155.0 L 1784.3 119.0 L 1789.7 108.0 L 1809.0 76.6 L 1836.0 55.5 L 1858.6 34.0 L 1866.0 29.5 L 1876.0 29.5 L 1885.0 31.5 L 1905.0 31.5 L 1930.0 27.5 L 1951.0 27.5 L 1953.5 29.0 Z M 881.2 34.0 L 882.5 37.0 L 882.5 42.0 L 880.3 48.0 L 871.7 60.0 L 864.3 74.0 L 852.7 91.0 L 848.3 100.0 L 838.7 113.0 L 830.3 129.0 L 823.7 138.0 L 817.3 151.0 L 809.7 161.0 L 794.7 186.0 L 792.3 192.0 L 782.7 206.0 L 778.3 215.0 L 774.7 219.0 L 760.7 246.0 L 754.3 263.0 L 743.5 277.0 L 728.4 293.0 L 714.0 303.3 L 709.0 304.5 L 666.0 304.5 L 658.0 302.3 L 652.5 298.0 L 650.5 294.0 L 650.0 259.4 L 648.0 260.6 L 621.5 296.0 L 609.0 308.5 L 606.0 310.3 L 580.0 311.5 L 562.0 314.5 L 546.0 314.5 L 540.0 312.3 L 535.0 307.4 L 533.5 300.0 L 541.5 241.0 L 542.5 214.0 L 544.5 200.0 L 544.5 182.0 L 546.5 167.0 L 546.5 144.0 L 549.5 111.0 L 549.5 87.0 L 550.5 80.0 L 553.0 75.5 L 562.0 69.5 L 578.6 52.0 L 583.0 50.5 L 596.0 50.5 L 620.0 47.5 L 645.0 42.5 L 654.0 44.7 L 656.3 48.0 L 657.2 52.0 L 655.5 67.0 L 653.5 74.0 L 653.1 89.0 L 654.0 89.9 L 678.0 66.4 L 684.5 58.0 L 698.0 44.5 L 703.0 42.7 L 722.0 42.5 L 745.0 39.5 L 760.0 39.5 L 763.0 40.7 L 765.5 46.0 L 762.5 67.0 L 763.5 79.0 L 765.0 80.9 L 804.5 40.0 L 810.0 36.7 L 865.0 34.5 L 874.0 32.5 L 878.0 32.5 Z M 532.0 51.5 L 534.5 55.0 L 534.5 64.0 L 533.5 68.0 L 534.2 72.0 L 533.5 90.0 L 532.5 93.0 L 531.5 161.0 L 530.5 164.0 L 530.5 181.0 L 528.5 191.0 L 528.5 215.0 L 530.5 229.0 L 530.5 250.0 L 528.5 258.0 L 528.5 263.0 L 531.5 276.0 L 529.5 282.0 L 498.4 308.0 L 483.0 318.3 L 473.0 319.5 L 454.0 319.5 L 450.0 320.5 L 436.0 320.5 L 432.0 319.3 L 428.5 317.0 L 425.5 312.0 L 427.1 289.0 L 419.0 288.5 L 403.6 291.0 L 393.5 304.0 L 379.0 318.5 L 362.4 333.0 L 358.0 335.3 L 352.0 336.5 L 336.0 336.5 L 313.0 339.5 L 293.0 339.5 L 288.0 337.5 L 285.7 334.0 L 285.5 327.0 L 293.7 309.0 L 307.7 283.0 L 321.3 261.0 L 323.7 255.0 L 341.3 227.0 L 358.7 196.0 L 364.3 189.0 L 366.7 183.0 L 375.3 171.0 L 385.7 151.0 L 399.3 130.0 L 412.5 106.0 L 434.5 84.0 L 449.0 67.5 L 459.0 58.7 L 491.0 57.5 L 505.0 53.7 L 528.0 49.5 Z" fill="#BF582C" stroke="#8A4524" stroke-width="4" stroke-linejoin="round" fill-rule="evenodd"/>
  <path d="M 398.4 32.0 L 398.9 33.0 L 398.7 34.0 L 394.3 43.0 L 371.3 82.0 L 358.0 101.4 L 354.0 101.2 L 338.0 93.8 L 319.0 89.5 L 307.0 88.5 L 294.0 89.5 L 278.0 93.8 L 262.0 102.7 L 250.5 113.0 L 243.8 124.0 L 241.5 131.0 L 241.5 141.0 L 244.0 145.4 L 248.5 150.0 L 267.0 160.3 L 288.0 168.8 L 310.0 180.7 L 317.3 188.0 L 320.2 193.0 L 323.2 202.0 L 323.5 220.0 L 317.2 242.0 L 302.0 267.4 L 292.5 280.0 L 282.3 291.0 L 259.4 310.0 L 242.0 320.3 L 208.0 335.2 L 175.0 345.2 L 142.0 351.5 L 107.0 352.5 L 87.0 349.2 L 73.0 345.2 L 64.6 341.0 L 63.1 339.0 L 63.8 334.0 L 80.2 302.0 L 86.8 285.0 L 98.0 266.0 L 104.0 266.8 L 126.0 274.2 L 147.0 278.5 L 171.0 277.5 L 195.0 271.2 L 216.0 261.3 L 229.5 250.0 L 236.3 241.0 L 240.2 231.0 L 240.5 225.0 L 239.2 220.0 L 236.0 214.6 L 225.0 205.7 L 202.0 193.3 L 182.0 179.5 L 175.5 173.0 L 169.7 165.0 L 164.5 151.0 L 165.8 132.0 L 169.8 118.0 L 176.8 102.0 L 183.7 90.0 L 196.0 73.6 L 212.0 57.5 L 227.0 46.7 L 261.0 30.8 L 298.0 18.8 L 316.0 15.5 L 346.0 15.5 L 355.0 16.5 L 381.0 23.8 Z M 1594.3 25.0 L 1595.5 28.0 L 1593.2 35.0 L 1576.2 78.0 L 1573.3 83.0 L 1540.0 86.5 L 1528.0 86.5 L 1521.8 89.0 L 1482.2 191.0 L 1465.0 232.3 L 1462.0 234.2 L 1451.0 233.5 L 1418.0 235.5 L 1406.0 235.0 L 1405.5 231.0 L 1407.8 223.0 L 1456.2 91.0 L 1455.5 89.0 L 1453.0 87.5 L 1404.0 87.5 L 1401.1 86.0 L 1401.8 82.0 L 1417.8 40.0 L 1421.5 33.0 L 1425.0 31.5 L 1518.0 31.5 L 1523.0 30.5 L 1548.0 30.5 L 1592.0 24.5 Z M 1245.0 26.5 L 1246.5 29.0 L 1245.3 33.0 L 1224.7 60.0 L 1189.0 112.4 L 1139.7 177.0 L 1109.0 237.3 L 1102.0 239.5 L 1089.0 239.5 L 1051.0 243.4 L 1047.7 242.0 L 1046.8 238.0 L 1060.2 203.0 L 1066.0 185.0 L 1065.5 177.0 L 1062.5 163.0 L 1060.5 132.0 L 1051.5 57.0 L 1051.9 40.0 L 1055.0 38.5 L 1087.0 35.5 L 1097.0 33.5 L 1115.0 31.5 L 1119.3 32.0 L 1120.5 34.0 L 1121.2 49.0 L 1121.5 96.0 L 1123.5 100.0 L 1127.0 101.9 L 1132.0 100.3 L 1135.0 97.4 L 1173.0 42.6 L 1181.0 33.7 L 1191.0 31.5 L 1203.0 31.5 L 1222.0 29.5 L 1243.0 25.6 Z M 1370.3 27.0 L 1371.5 29.0 L 1371.5 33.0 L 1368.5 53.0 L 1366.5 91.0 L 1361.5 139.0 L 1357.5 165.0 L 1353.5 226.0 L 1352.0 232.3 L 1350.0 233.5 L 1338.0 234.5 L 1314.0 234.5 L 1291.0 236.5 L 1287.8 233.0 L 1288.5 216.0 L 1285.0 210.8 L 1279.0 209.5 L 1243.0 210.5 L 1236.9 212.0 L 1223.2 235.0 L 1220.0 237.2 L 1183.0 239.5 L 1162.0 239.0 L 1161.8 236.0 L 1164.7 230.0 L 1193.7 182.0 L 1276.7 50.0 L 1289.9 32.0 L 1293.0 30.5 L 1312.0 30.5 L 1333.0 27.5 L 1349.0 27.5 L 1367.0 25.8 Z M 1759.5 54.0 L 1765.3 62.0 L 1771.3 74.0 L 1774.5 85.0 L 1775.5 97.0 L 1770.3 114.0 L 1765.5 121.0 L 1756.0 130.5 L 1744.0 139.3 L 1727.0 146.2 L 1699.0 152.8 L 1695.8 156.0 L 1726.2 239.0 L 1725.3 241.0 L 1706.0 242.5 L 1683.0 242.5 L 1679.0 243.5 L 1660.7 243.0 L 1657.8 239.0 L 1637.2 180.0 L 1635.0 177.9 L 1631.8 182.0 L 1610.0 234.1 L 1551.7 235.0 L 1549.6 232.0 L 1550.8 228.0 L 1563.2 199.0 L 1582.8 147.0 L 1588.2 135.0 L 1607.8 80.0 L 1617.8 55.0 L 1627.7 36.0 L 1631.0 34.5 L 1657.0 33.5 L 1688.0 30.5 L 1712.0 31.5 L 1734.0 36.8 L 1750.0 45.7 Z M 1005.0 34.9 L 1006.5 38.0 L 1006.5 54.0 L 1005.5 57.0 L 1005.5 75.0 L 1002.5 116.0 L 1000.5 174.0 L 998.5 193.0 L 997.5 238.0 L 996.0 243.0 L 988.0 244.5 L 934.0 247.4 L 933.0 247.0 L 933.0 247.0 L 932.5 244.0 L 934.5 235.0 L 934.5 224.0 L 932.0 220.3 L 912.0 218.8 L 888.0 219.5 L 885.0 221.6 L 866.0 250.2 L 846.0 251.5 L 817.0 255.5 L 806.0 255.1 L 804.8 252.0 L 807.8 246.0 L 856.3 170.0 L 876.7 134.0 L 932.9 42.0 L 936.0 40.5 L 969.0 39.5 L 996.0 34.5 L 1003.0 34.1 L 1004.0 34.3 Z M 1944.0 36.0 L 1944.5 45.0 L 1942.5 61.0 L 1938.5 136.0 L 1936.5 153.0 L 1935.5 187.0 L 1931.0 244.0 L 1919.0 245.5 L 1870.0 247.2 L 1867.5 242.0 L 1868.5 225.0 L 1867.3 221.0 L 1865.0 218.8 L 1855.0 217.5 L 1825.0 217.5 L 1821.0 218.8 L 1810.0 237.4 L 1804.0 242.5 L 1748.0 242.2 L 1747.8 237.0 L 1752.7 227.0 L 1866.0 38.7 L 1869.0 37.5 L 1903.0 38.5 L 1927.0 35.5 Z M 871.6 45.0 L 861.3 66.0 L 806.7 155.0 L 750.3 252.0 L 746.3 256.0 L 701.0 260.5 L 692.0 260.9 L 687.0 259.3 L 685.5 255.0 L 685.5 247.0 L 686.5 242.0 L 686.5 203.0 L 687.5 193.0 L 686.0 188.7 L 682.0 186.6 L 679.5 188.0 L 676.7 192.0 L 663.3 218.0 L 639.3 257.0 L 634.3 263.0 L 624.0 265.5 L 598.0 268.5 L 578.0 268.5 L 574.0 265.4 L 572.5 262.0 L 572.5 228.0 L 573.5 224.0 L 574.5 175.0 L 575.5 172.0 L 578.5 106.0 L 581.5 74.0 L 580.8 70.0 L 582.0 64.9 L 585.0 62.8 L 590.0 61.5 L 602.0 60.5 L 642.0 53.5 L 644.1 54.0 L 645.5 57.0 L 645.5 71.0 L 640.5 138.0 L 640.5 152.0 L 641.7 154.0 L 644.0 154.9 L 646.3 154.0 L 649.3 150.0 L 700.8 56.0 L 704.0 53.8 L 727.0 52.5 L 746.0 49.5 L 754.0 50.0 L 754.5 86.0 L 753.5 90.0 L 753.5 116.0 L 752.5 122.0 L 752.5 141.0 L 754.0 142.9 L 757.0 141.5 L 760.3 137.0 L 808.0 49.9 L 812.0 47.8 L 820.0 46.5 L 842.0 45.5 L 865.0 42.5 Z M 523.0 61.0 L 523.5 105.0 L 522.5 110.0 L 521.5 211.0 L 519.5 236.0 L 519.5 260.0 L 517.5 271.0 L 515.0 272.5 L 494.0 273.5 L 465.0 277.5 L 460.0 276.4 L 457.5 273.0 L 457.5 259.0 L 456.2 255.0 L 452.0 251.8 L 447.0 251.5 L 424.0 254.5 L 408.0 257.9 L 391.0 287.2 L 381.0 289.5 L 349.0 292.5 L 340.0 294.5 L 329.7 294.0 L 328.3 290.0 L 335.7 276.0 L 350.3 254.0 L 371.7 217.0 L 400.3 174.0 L 409.7 156.0 L 428.3 128.0 L 452.3 87.0 L 460.9 70.0 L 481.0 69.5 L 516.0 60.5 Z M 1661.0 117.2 L 1667.0 117.5 L 1680.0 113.2 L 1685.0 111.2 L 1695.0 104.5 L 1699.2 99.0 L 1701.5 91.0 L 1699.5 83.0 L 1692.0 77.8 L 1686.0 76.8 L 1671.7 79.0 L 1659.8 109.0 L 1659.1 113.0 Z M 1272.0 159.2 L 1276.0 161.2 L 1286.0 162.8 L 1290.0 164.5 L 1293.0 164.4 L 1294.7 163.0 L 1299.5 124.0 L 1299.5 119.0 L 1298.0 116.8 L 1297.0 116.6 L 1296.0 116.8 L 1292.8 119.0 L 1273.7 150.0 L 1270.8 157.0 Z M 1849.0 174.2 L 1864.0 174.5 L 1867.0 175.6 L 1869.0 174.4 L 1870.5 170.0 L 1875.9 132.0 L 1869.0 131.8 L 1863.7 139.0 L 1846.8 169.0 L 1846.8 172.0 Z M 920.0 173.2 L 940.0 173.0 L 946.5 137.0 L 946.5 136.0 L 946.2 135.0 L 944.0 132.8 L 940.0 134.7 L 923.7 160.0 L 918.8 169.0 L 918.8 172.0 Z M 440.0 207.2 L 457.0 206.5 L 459.2 205.0 L 460.5 201.0 L 460.5 191.0 L 463.5 170.0 L 462.0 166.8 L 459.0 166.5 L 457.0 167.7 L 442.7 192.0 L 438.5 202.0 L 438.8 206.0 Z" fill="#F2D18F" stroke="#8A4524" stroke-width="4" stroke-linejoin="round" fill-rule="evenodd"/>
</svg>
